<svg width="40" height="41" viewBox="0 0 40 41" fill="none" xmlns="http://www.w3.org/2000/svg">
<g id="Vector">
<mask id="path-1-inside-1_174_1714" fill="white">
<path d="M40 20.5C40 31.5457 31.0457 40.5 20 40.5C8.9543 40.5 0 31.5457 0 20.5C0 9.4543 8.9543 0.5 20 0.5C31.0457 0.5 40 9.4543 40 20.5Z"/>
</mask>
<path d="M21.0607 9.93926C20.4749 9.35347 19.5251 9.35347 18.9393 9.93926L9.3934 19.4852C8.80761 20.071 8.80761 21.0207 9.3934 21.6065C9.97919 22.1923 10.9289 22.1923 11.5147 21.6065L20 13.1212L28.4853 21.6065C29.0711 22.1923 30.0208 22.1923 30.6066 21.6065C31.1924 21.0207 31.1924 20.071 30.6066 19.4852L21.0607 9.93926ZM21.5 31.0249V10.9999H18.5V31.0249H21.5ZM37 20.5C37 29.8888 29.3888 37.5 20 37.5V43.5C32.7025 43.5 43 33.2025 43 20.5H37ZM20 37.5C10.6112 37.5 3 29.8888 3 20.5H-3C-3 33.2025 7.29745 43.5 20 43.5V37.5ZM3 20.5C3 11.1112 10.6112 3.5 20 3.5V-2.5C7.29745 -2.5 -3 7.79745 -3 20.5H3ZM20 3.5C29.3888 3.5 37 11.1112 37 20.5H43C43 7.79745 32.7025 -2.5 20 -2.5V3.5Z" fill="#69B7FF" mask="url(#path-1-inside-1_174_1714)"/>
</g>
</svg>
