<svg width="49" height="50" viewBox="0 0 49 50" fill="none" xmlns="http://www.w3.org/2000/svg">
<path d="M49 25C49 38.8071 38.031 50 24.5 50C10.969 50 0 38.8071 0 25C0 11.1929 10.969 0 24.5 0C38.031 0 49 11.1929 49 25Z" fill="#53ACFF"/>
<path d="M24.5 16.2304C23.0319 14.594 21.0408 13.6747 18.9646 13.6747C16.8884 13.6747 14.8973 14.594 13.4292 16.2304C11.9611 17.8667 11.1364 20.0862 11.1364 22.4003C11.1364 24.7145 11.9611 26.9339 13.4292 28.5703L24.5 16.2304Z" fill="white"/>
<path d="M35.5708 28.532C37.0389 26.8956 37.8636 24.6762 37.8636 22.362C37.8636 20.0478 37.0389 17.8284 35.5708 16.1921C34.1027 14.5557 32.1116 13.6364 30.0354 13.6364C27.9592 13.6364 25.9681 14.5557 24.5 16.1921L35.5708 28.532Z" fill="white"/>
<path d="M13.3554 28.5094L24.4798 16.1097L35.6042 28.5094L24.4798 40.9091L13.3554 28.5094Z" fill="white"/>
</svg>
