<svg width="51" height="51" viewBox="0 0 51 51" fill="none" xmlns="http://www.w3.org/2000/svg">
<g filter="url(#filter0_d_174_1303)">
<path d="M47 21.5C47 33.3741 37.3741 43 25.5 43C13.6259 43 4 33.3741 4 21.5C4 9.62588 13.6259 0 25.5 0C37.3741 0 47 9.62588 47 21.5Z" fill="white"/>
<path d="M33.129 12.7151C33.129 16.9285 29.7134 20.3441 25.5 20.3441C21.2866 20.3441 17.871 16.9285 17.871 12.7151C17.871 8.50166 21.2866 5.08602 25.5 5.08602C29.7134 5.08602 33.129 8.50166 33.129 12.7151Z" fill="#C0E1FF"/>
<path d="M10.0108 36.4146C10.1934 28.0188 17.0566 21.2688 25.4963 21.2688C33.936 21.2688 40.7992 28.0189 40.9818 36.4148C37.0708 40.4744 31.5785 43 25.4964 43C19.4141 43 13.9217 40.4744 10.0108 36.4146Z" fill="#C0E1FF"/>
</g>
<defs>
<filter id="filter0_d_174_1303" x="0" y="0" width="51" height="51" filterUnits="userSpaceOnUse" color-interpolation-filters="sRGB">
<feFlood flood-opacity="0" result="BackgroundImageFix"/>
<feColorMatrix in="SourceAlpha" type="matrix" values="0 0 0 0 0 0 0 0 0 0 0 0 0 0 0 0 0 0 127 0" result="hardAlpha"/>
<feOffset dy="4"/>
<feGaussianBlur stdDeviation="2"/>
<feComposite in2="hardAlpha" operator="out"/>
<feColorMatrix type="matrix" values="0 0 0 0 0 0 0 0 0 0 0 0 0 0 0 0 0 0 0.25 0"/>
<feBlend mode="normal" in2="BackgroundImageFix" result="effect1_dropShadow_174_1303"/>
<feBlend mode="normal" in="SourceGraphic" in2="effect1_dropShadow_174_1303" result="shape"/>
</filter>
</defs>
</svg>
