<svg width="49" height="50" viewBox="0 0 49 50" fill="none" xmlns="http://www.w3.org/2000/svg">
<path d="M49 25C49 38.8071 38.031 50 24.5 50C10.969 50 0 38.8071 0 25C0 11.1929 10.969 0 24.5 0C38.031 0 49 11.1929 49 25Z" fill="#53ACFF"/>
<path d="M20.3079 26.1364C20.3079 28.9052 18.1082 31.1497 15.3948 31.1497C12.6813 31.1497 10.4817 28.9052 10.4817 26.1364C10.4817 23.3676 12.6813 21.123 15.3948 21.123C18.1082 21.123 20.3079 23.3676 20.3079 26.1364Z" fill="white"/>
<path d="M34.0646 14.1043C34.0646 16.8731 31.8649 19.1176 29.1515 19.1176C26.438 19.1176 24.2383 16.8731 24.2383 14.1043C24.2383 11.3355 26.438 9.09091 29.1515 9.09091C31.8649 9.09091 34.0646 11.3355 34.0646 14.1043Z" fill="white"/>
<path d="M34.0646 38.1684C34.0646 40.9373 31.8649 43.1818 29.1515 43.1818C26.438 43.1818 24.2383 40.9373 24.2383 38.1684C24.2383 35.3996 26.438 33.1551 29.1515 33.1551C31.8649 33.1551 34.0646 35.3996 34.0646 38.1684Z" fill="white"/>
<path d="M16.3774 24.4456L27.4945 13.1016L28.8841 14.5196L17.767 25.8636L16.3774 24.4456Z" fill="white"/>
<path d="M17.7669 25.1337L28.884 36.4776L27.4943 37.8956L16.3772 26.5517L17.7669 25.1337Z" fill="white"/>
</svg>
